<svg xmlns="http://www.w3.org/2000/svg" width="256" height="256" viewBox="0 0 10240 10240" preserveAspectRatio="xMidYMid meet" xmlns:v="https://vecta.io/nano"><path d="M5045 8781c-11-5-40-15-65-22-60-17-126-47-175-79-22-14-62-37-90-50-27-13-68-36-90-49-22-14-82-47-133-74-52-26-110-58-130-70-21-13-80-44-132-70-126-64-160-97-205-199l-66-142c-33-65-36-86-14-86 15 0 259 123 605 305 456 240 487 255 528 255 61 0 109-21 316-139 299-169 788-431 807-431 17 0 8 30-45 153-48 112-60 131-119 189-42 41-92 77-143 103-44 21-90 47-104 56s-63 37-110 61-103 55-125 69c-22 13-53 31-70 39-16 8-45 25-63 37-55 36-243 126-281 134-20 4-45 10-56 13s-29 1-40-3zm-1295-667c-99-50-136-75-181-122-50-53-59-69-92-170-21-61-37-116-37-122 0-19 26-10 175 60l149 70 22 57 63 165c42 108 47 129 34 127-5 0-64-30-133-65zm415-630c-320-144-774-332-945-391-25-9-54-23-66-32-11-9-64-32-117-51s-97-40-97-46-29-62-65-125c-36-62-65-119-65-126 0-25 40-13 277 83l353 140c95 35 322 123 617 236 45 18 57 28 82 73 16 28 59 98 95 155s66 110 66 117c0 21-29 14-135-33zm1675 30c0-9 47-86 104-172l104-157 59-22c165-60 1001-386 1083-422 93-40 140-51 140-32 0 12-116 251-129 267-5 6-45 24-88 39s-100 38-128 50c-128 58-204 89-288 120-254 92-616 240-749 306-85 42-108 47-108 23zm-1142-331c-2-10-3-400-3-868v-850l290 1c322 0 353 5 470 69 275 152 343 573 133 819-98 114-222 165-425 173l-133 6-2 331-3 331-162 3c-148 2-162 1-165-15zm578-1008c64-39 109-125 100-189-9-55-43-112-89-150-37-30-43-31-148-34l-109-4v199c0 110 3 203 8 207 4 5 48 6 98 4 80-3 98-8 140-33zm1164 719c0-9 40-74 89-143l89-126 11-165c6-91 14-277 17-415l10-256c1-3 4-77 5-166l2-160 170-7c94-4 173-3 177 1 7 8-10 467-26 693-3 58-4 103-1 100s47-77 97-165l180-305 140-237 52-93h117c142 0 251 10 251 22 0 5-13 28-28 51-16 23-76 119-134 212-487 787-594 952-622 961-19 6-158 57-474 175-117 44-122 45-122 23zm-3124-124l-191-72c-10-13-518-780-581-878l-152-236c-40-61-72-116-72-122 0-7 187-10 619-11 571 0 620 1 634 17 32 37 177 256 177 269 0 10-39 13-195 13-107 0-195 2-195 5s32 48 70 101c39 53 70 103 70 110 0 11-50 14-264 16l-265 3 67 102 77 119c9 13 32 17 130 21 104 5 123 8 143 27 27 24 162 220 162 234 0 6-42 12-94 14-52 1-98 6-101 10-4 4 36 72 89 150 96 144 111 179 79 177-10 0-103-31-207-69zm4084-140c0-11 66-121 148-245l280-432 234-363c124-193 150-246 142-289-13-65 37-62-925-59l-874 3-44 25c-24 14-58 46-76 72-30 45-96 98-237 191l-58 38v55c0 41-4 54-15 54-13 0-15-51-15-399v-399l48-16c26-8 106-29 177-46 149-35 268-66 475-122l240-65c52-13 158-43 235-65 201-58 185-58 223 1 37 56 117 224 128 265l6 26h-88-89l-24-35c-13-19-29-35-35-35-16 1-499 139-541 155-5 2 205 4 468 4l477 1 12-27c43-106 164-356 190-391 60-85 72-182 42-341-17-93-28-119-54-138-10-7-22-32-28-55-15-57-71-121-127-144-53-22-59-46-15-69 16-8 33-23 39-32 9-17 13-16 57 6 65 31 171 100 219 142 51 45 110 137 131 207 25 81 25 273 0 367-20 76-82 211-171 373l-56 102h44c31 0 49 6 62 20 15 16 31 20 83 20 103 0 220 48 284 116 33 36 78 124 78 154 0 12 5 31 11 42 11 21 9 33-23 138-6 19-32 67-57 105l-62 100c-9 17-51 81-93 143s-76 116-76 118c0 3-29 49-63 102l-91 142c-39 65-46 77-98 158-27 40-48 76-48 79 0 2-16 28-35 57-33 50-42 57-158 109-144 66-222 97-242 97-8 0-15-9-15-20zm-4864-60c-184-80-196-88-216-126-8-16-27-48-42-70-16-23-28-44-28-47 0-2-28-48-62-100-71-108-131-205-136-219-2-4-31-51-65-103l-112-176c-27-45-70-111-94-148-95-144-113-233-69-355 31-88 60-129 115-162 62-37 168-73 214-74 21 0 47-9 62-20 19-15 40-20 90-20h66l-61-107c-150-265-192-388-192-563 1-82 6-120 23-172 47-142 140-244 293-323 93-48 113-53 122-30 3 8 17 20 31 27 40 18 33 51-16 73-51 24-106 87-120 139-6 23-24 55-40 72-37 38-53 113-54 249 0 122 8 165 39 198 23 25 101 183 169 343 26 60 39 80 58 85 13 4 231 7 484 7l460 1-80-23c-44-13-134-38-200-56s-158-45-205-60l-85-27-22 31c-33 43-40 46-120 46-55 0-73-3-73-14 0-45 143-326 166-326 7 0 74 18 151 39l238 66 485 134c36 11 112 31 170 46a3542.9 3542.9 0 0 1 165 45l103 30 42 11v292c0 295-5 367-22 367-9 0-69-39-251-162-22-15-60-48-85-72-80-80-30-76-966-76l-865 10c-41 12-51 24-51 68 0 43 5 52 166 304 351 547 614 976 614 1001 0 27-26 20-194-53zm2437-1470c-94-48-140-135-129-243 14-133 98-207 237-207 244 1 331 332 116 442-63 32-170 36-224 8zm258-177c9-28 8-43-6-79-23-61-72-96-138-101-69-5-114 19-146 78-27 50-24 100 7 139 17 22 18 21 14-19-4-38-2-41 19-41 13 1 35 7 49 15 32 18 70 18 94 0 11-8 31-15 44-15 22 0 24 3 20 44-3 42-2 44 14 29 10-8 22-31 29-50zm-3433-105c-9-7-32-42-50-78l-45-85c-20-36-49-109-62-155l-22-76c-12-40-12-309 0-348 6-17 17-57 26-88 20-68 72-171 129-252l55-80c24-35 114-126 147-149 29-20 142-94 189-125 49-30 229-112 249-112 8 0 17-4 20-8 3-5 51-23 108-41 157-49 162-51 194-52 16 0 43-8 59-18 34-20 32 6 19-307-7-186 18-172-319-178-149-2-299-8-335-13-63-8-64-9-40-22 24-14 69-26 135-37 17-3 39-9 50-14s40-11 65-14 77-10 115-17c39-6 124-13 190-15 66-3 124-9 130-15 5-5 66-9 136-9 100 0 129-3 139-15 16-20 26-19 61 6 33 23 38 54 11 68-33 18-79 66-87 91-4 14-20 39-36 57-32 37-54 126-44 176 4 17 32 89 63 159l55 126 46 4c73 5 88 0 102-35 28-68 62-84 97-47 24 26 183 292 207 346 16 39 22 42 104 70 58 20 87 35 89 47 2 9-2 17-8 17s-128 59-271 130l-260 130h331 330v-120c0-93 3-120 13-120 8 0 64 28 127 63 101 56 115 67 137 109 61 117 35 269-54 321-44 25-100 28-224 12-154-20-387-45-529-55l-215-20-145-13c-52-4-54-3-25 9 43 19 151 40 308 60 76 10 140 21 143 26 3 4 22 8 43 8s78 7 127 15c86 15 124 34 124 62 0 7 1 13 3 13 30 1 593 122 620 133 48 21 52 52 5 43-18-3-87-12-153-21-66-8-147-19-180-25-64-11-325-52-462-71-81-12-82-12-85-43-4-36 13-32-278-66-222-26-297-44-325-78-11-14-32-36-47-50-16-14-28-33-28-42 0-50-108-140-168-140-18 0-22-6-22-33 0-26 6-36 25-45 14-7 34-27 45-45 17-28 54-50 232-139 117-58 256-121 308-141l110-41c8-3-16-3-53 0-98 8-284 57-413 109-62 25-117 45-122 45-6 0-12-14-14-32-11-113-261-96-320 21-12 24-36 44-78 67-83 44-156 102-238 188-120 126-169 214-196 348-40 197-4 377 120 589 24 42 44 79 44 82 0 13-215 8-232-5zm6322 4c0-4 6-17 14-28s39-69 69-130c58-115 91-219 102-320 8-73-10-209-37-282-30-79-128-220-203-291-74-68-196-158-237-173-14-5-31-22-38-38-6-15-22-38-34-49-28-27-124-61-170-61-69 0-136 43-136 87 0 13-3 23-7 23-5 0-49-18-100-40-109-47-235-84-357-105-150-26-164-19-46 24 58 21 161 64 230 97 287 137 328 159 334 180 3 12 24 33 46 48 34 22 41 32 38 54-2 22-9 28-38 33-70 11-126 54-154 119-42 94-114 135-281 160l-90 14 75 14c41 7 81 20 90 28 8 8 27 24 43 35 58 44 11 66-68 33s-252-34-420-4c-53 10-213 33-755 110-166 24-190 24-190 5 0-18 24-31 73-40 20-4 37-10 37-14s29-13 65-20 68-18 71-23 17-7 31-3c14 3 31 1 39-6 7-6 21-9 29-5 9 3 33-1 53-10 21-8 78-17 130-19 95-4 128-8 219-27 47-10 52-13 47-33-5-21 0-23 98-39l183-31 154-25c41-7 104-23 140-36 64-23 65-23 21-19-25 3-128 12-230 20l-448 45c-396 45-439 41-505-42-27-33-31-48-35-117-6-105 17-173 71-212 43-31 210-119 226-119 7 0 11 41 11 125v125h338l337-1-75-33c-41-18-162-76-269-130-106-53-200-96-207-96-8 0-14-6-14-14 0-16 68-50 136-68 42-12 49-18 74-68 71-140 190-324 220-340 33-18 45-11 75 40l29 50h63 64l35-77c83-181 97-242 74-325-6-21-21-50-34-65s-26-40-30-55c-6-28-55-71-93-83-30-8-29-26 3-64 24-29 31-31 87-30 63 0 150 10 267 29 36 6 103 15 150 20 161 17 272 35 365 59 22 6 58 14 80 19 96 22 101 42 11 42-36 0-68 5-71 10-4 6-103 10-264 10-321 0-301-11-301 166 0 94-4 131-20 174-40 110-25 127 155 172 76 19 296 92 301 100 3 4 12 8 20 8 18 0 98 37 149 69 22 14 60 36 84 48 120 62 275 208 364 342 35 53 69 112 77 131 7 19 19 51 28 70 26 59 53 208 53 295 0 49-15 158-29 205-6 19-14 46-17 60-16 59-122 277-147 302-15 15-36 18-123 18-58 0-105-3-105-8zm-3390-325c0-30 4-34 48-50 101-36 208-57 295-57 179 0 357 61 357 123 0 22-7 21-130-13-144-41-351-36-486 10-78 27-84 26-84-13zm94-414c-3-10-11-28-17-40-21-46 11-703 39-789 4-13-4-8-25 14-37 38-51 41-51 8 0-43 60-108 135-146 65-33 73-35 174-35 90 0 113 4 152 23 55 27 119 88 119 114 0 28-20 22-65-20-44-42-97-62-169-62h-46l-1 428-8 452c-6 22-15 26-66 33-33 5-63 13-66 19-4 6-20 8-38 5-18-4-31-2-31 3 0 17-30 11-36-7zm-2331-350c-13-2-37-18-54-36-27-27-30-36-26-70 13-97 126-129 198-57 48 48 35 126-26 155-33 15-49 16-92 8zm5056-22c-23-23-29-38-29-71 0-54 14-79 56-96 45-19 107-9 139 24 37 37 35 103-4 143-25 25-37 29-81 29s-56-4-81-29zm-1919-215c0-8 12-23 28-34 54-39 376-196 812-399l280-131c66-31 87-36 168-40 50-2 92 0 92 5s16 7 35 5c25-3 35 0 35 10 0 21-58 38-127 38-79 0-133 19-381 138l-818 386c-87 38-124 45-124 22zm-1260-176l-495-230c-502-231-465-208-465-288 0-38-19-79-49-106-12-11-21-25-21-32 0-21-57-80-90-94-38-16-38-32 0-63 17-14 30-30 30-34 0-10 156-70 252-98 31-9 121-20 200-26l205-15c39-4 70-1 85 6 49 26 128 84 128 95 0 13-42 35-67 35-8 0-43 9-77 19-140 45-173 54-216 61-25 5-63 14-85 20-22 7-56 14-75 17-104 17-122 64-65 178l36 74 92 44c51 25 108 50 127 57s39 17 45 22c5 4 16 8 25 8 8 0 60 23 115 50 55 28 104 50 108 50 5 0 65 27 134 60 150 72 185 76 233 28 18-18 42-49 55-68 67-102 216-205 354-245l91-27c40-11 155-6 215 10 22 6 54 14 70 17 58 13 169 66 205 100 14 12 35 28 47 34s52 56 88 110c87 133 96 135 252 60 44-21 85-39 89-39s54-22 111-50c56-27 106-50 110-50 5 0 53-22 108-50 55-27 105-50 111-50 5 0 29-9 52-20 22-11 47-20 54-20 25 0 95-83 103-120 18-97 17-114-7-137-15-13-41-23-73-26-27-3-70-10-95-17-25-6-65-15-90-19s-65-15-90-24-53-17-63-17c-9 0-25-4-35-9-28-14-87-31-108-31-11 0-28-6-38-13-17-13-16-16 20-43 103-79 119-86 176-80 88 9 281 40 353 56 28 7 76 13 108 15 72 4 203 50 240 83 27 25 39 82 17 82-21 0-89 72-95 101-4 16-10 29-15 29-21 0-53 65-59 118l-6 56-110 56c-60 31-222 107-360 170l-450 207c-109 51-205 93-211 93s-15-17-18-37c-4-21-25-75-48-121-56-114-132-191-244-244-75-36-95-41-177-46-170-9-300 40-404 152-71 75-106 135-134 228-12 37-26 68-32 67-7-1-86-36-177-79z" fill="#eceeef"/><path d="M6250 8168c0-7 29-85 63-173l64-160 149-76c82-42 173-85 202-95 53-18 54-18 68 1 22 30 17 68-16 113-16 23-30 44-30 47s12 5 26 5c45 0 21 22-76 71-65 33-107 62-135 93-29 33-71 61-160 106-66 34-124 66-129 71-14 13-26 11-26-3zM4594 4603c-24-16-148-210-186-290-98-208-102-362-14-548 57-120 196-272 196-214 0 6-18 67-40 136-56 177-74 278-67 393 9 150 83 368 151 445 34 38 32 79-4 83-14 1-30-1-36-5zm-2218-208c-65-27-76-37-76-77 0-35 12-35 85-2 76 35 183 37 282 5 129-42 183-99 183-193 0-27 5-48 10-48 6 0 10 4 10 8 0 5 30 16 68 25 61 15 121 23 407 57 122 15 122 15 117 50-5 36-10 36-179 16-189-23-274-6-449 90-126 68-211 94-313 94-68 0-99-6-145-25zm1979-944l-752-345c-283-133-294-137-383-147-118-12-140-17-167-42-26-23-31-67-9-67 12 0 12-5 3-30-15-39-5-46 45-29 61 20 178 18 211-4 26-17 67-23 67-10 0 4-5 22-12 40-10 28-20 36-58 47-26 8-39 16-30 19 83 27 158 60 430 190 661 313 822 395 818 414-2 10-10 19-18 20s-73-24-145-56zm2558-983c-57-40-38-98 32-98 29 0 89 52 83 72-5 13-56 46-73 47-6 1-25-9-42-21z" fill="#d3d8da"/><path d="M5707 5413c-4-38-7-209-7-381v-313l40-54c72-98 70-108 70 370 0 332-3 426-12 430-7 2-29 6-49 9l-36 6-6-67zm-1351-190c-10-117-19-559-11-582 10-33 31-25 70 25l35 47v282 283l-31 6c-56 11-57 10-63-61zm-236-492c-8-4-69-23-135-41l-250-70-222-59c-57-14-94-29-97-38-4-9-1-42 6-74 11-56 13-59 43-59 33 0 193 24 265 40 25 6 122 26 215 45 219 44 230 48 229 68 0 9-1 58-2 107-2 79-4 90-19 90-10 0-25-4-33-9zm1860-105v-104l34-12c19-6 97-22 173-35l218-40c44-8 106-18 138-22l57-6v35c0 19 4 38 9 43 5 6 12 24 16 42 6 31 5 32-37 43-24 6-81 22-128 35-47 14-128 35-180 49-52 13-133 36-180 50-128 38-120 44-120-78z" fill="#88e3f3"/><path d="M6920 7518c1-13 14-41 29-63 16-22 62-93 103-158l88-142c10-17 56-40 155-79 77-31 146-56 152-56 16 0 7 24-29 78-15 24-28 47-28 52s-5 12-12 16c-8 5-9-3-5-31l6-37-62 56c-103 94-137 129-163 169-13 20-28 37-33 37-9 0-91 101-124 153-23 36-77 39-77 5zm570-3114c-57-15-280-123-280-136 0-5 10-8 23-8 21-1 21-2-8-25l-45-39c-36-33-210-46-341-25-29 5-71 9-93 10-23 0-80 8-127 16-108 18-144 15-144-12 0-17 10-22 59-29 50-8 60-7 70 7 8 10 23 14 42 12l189-20c208-22 369-49 432-74l51-20 4 68c5 91 32 131 116 173 54 27 76 32 160 36 82 4 106 1 157-18 99-36 95-36 95-2 0 82-196 129-360 86zm-2671-118c-20-7-49-22-65-33s-36-22-45-26c-25-9-32-86-24-275 16-411 50-682 85-682a9.4 9.4 0 0 1 10 10c0 5 19-11 41-35 23-25 45-45 50-45 4 0 2 18-6 40-8 23-17 64-20 93l-11 82c-18 135-28 596-13 625 4 8 10 24 14 35 5 16 8 17 15 5 10-16 40-23 40-9 0 11 23 7 32-6 4-5 16-11 28-11 11-1 22-3 25-4s20-3 37-4c24-1 34-6 36-21 2-11 8-24 13-29 5-6 9 32 9 96v106l-32 13c-17 7-49 30-71 51-45 42-81 48-148 24zM3136 2459c-13-19-13-26-1-49 22-43 63-52 115-25 33 17 38 40 14 73-22 31-106 32-128 1z" fill="#b6c2c6"/><path d="M6614 4551c4-6 3-11-3-11s-8-7-5-15c4-8 1-21-5-29s-13-28-14-45-8-31-14-31c-7 0-13-3-13-7 0-14 312-66 418-71 123-5 157 5 166 50 3 17 4 33 2 36-6 6-463 123-505 129-23 4-32 2-27-6zm-3309-45l-70-23 3-54c2-30 8-58 12-63 14-14 210 9 210 25 0 5-4 9-9 9-9 0-27 83-23 113 2 23-33 21-123-7zm870-883c-44-20-185-90-313-156l-233-119-39-62c-38-58-50-96-31-96 12 0 624 302 689 340l53 31-3 47c-4 61-19 63-123 15zm1685-15l1-53 92-57c122-75 113-71 574-284 83-38 93-40 93-20s-64 127-87 147c-10 8-117 62-238 119l-317 152c-54 26-102 48-108 48-5 0-10-23-10-52z" fill="#6fb7c6"/><g fill="#96a7ab"><path d="M5026 8209c-52-12-95-46-142-111l-154-208c-64-85-188-258-275-385l-255-365c-168-236-207-294-234-344l-26-49v-640-639l-27-49c-14-27-23-52-20-56 4-3 25 7 48 23l133 91 91 62 6-27c4-15 7-159 8-319 1-188 5-293 11-293 7 0 10 297 10 870v869l156 218 303 411 277 370c71 97 134 177 140 179 5 1 27-23 49-54l162-222 151-206c15-22 80-110 144-195l241-328 127-173v-443c0-436 4-541 21-530 5 3 9-20 9-50v-55l58-38 131-90c41-29 77-51 79-48 3 3-5 24-19 48l-24 42v635 635l-24 45c-28 52-198 305-289 430l-206 292-173 245c-17 21-85 116-152 210-120 168-162 216-207 233-40 15-88 19-128 9zm-1516-274c-13-14-30-25-37-25-8 0-71-28-141-62-153-75-207-122-298-260l-64-101c0-3-51-81-112-175-159-240-191-293-185-299 5-4 44 10 231 84 33 12 65 23 71 23 7 0 69 87 138 193 204 311 198 305 278 341 38 17 67 36 65 42-4 12 55 198 74 234 17 31 7 34-20 5zm3253-92c-18-2-33-7-33-11s16-29 35-56c39-55 42-71 20-103-15-21-14-23 15-38 16-8 48-40 71-70 39-52 59-67 59-45 0 21 40 9 57-17 33-52 115-153 124-153 5 0 20-17 33-37 26-40 56-71 168-174 52-47 69-58 73-46 10 24-14 95-43 130-36 42-198 291-266 409-37 63-129 146-207 186-35 18-66 32-69 31s-20-4-37-6zm-2633-289l-575-244c-317-124-336-133-361-182-36-67-32-71 39-45 249 93 543 214 945 391 56 25 108 43 115 41 14-5 87 96 87 119 0 9-8 16-17 15-10 0-115-43-233-95zm1620 85c0-8 40-72 88-139 2-2 7 1 11 9 6 10 26 4 87-27 135-67 456-199 760-311 60-22 145-56 189-76 90-39 99-35 68 35-17 39-23 43-119 79-55 21-222 89-370 151l-354 146c-47 17-140 57-207 88-123 56-153 65-153 45zm1457-696c8-21 37-82 64-135 27-54 45-98 39-98-19 0-10-19 12-26 13-4 35-21 51-37 20-22 31-27 36-18 9 14 88-15 265-98 60-28 111-49 113-47 5 4-44 95-63 117-8 8-14 19-14 23 0 5-12 27-27 50-16 22-37 58-48 79-33 63-83 101-185 140-105 41-239 87-251 87-4 0-1-17 8-37zm-4407-18c-63-25-137-52-165-61-27-9-61-26-74-38-23-21-111-149-111-162 0-4-6-15-14-23-18-20-98-171-91-171 3 0 22 8 43 19 94 48 323 140 335 135 8-3 21 6 30 20 9 13 32 30 52 37 35 13 44 24 25 31-6 2 19 54 55 117 36 62 65 120 65 127 0 22-26 16-150-31zm2697-2321c-15-15-6-48 23-84 65-83 150-304 150-392 0-46 28-78 68-78 15 0 38-3 51-7l24-6-5 83c-5 78-8 90-72 215-85 167-160 269-202 273-16 2-33 0-37-4zm-772-137c-4-12-35-246-35-261 0-5 7-3 15 4 10 9 15 9 15 1a11.1 11.1 0 0 1 11-11c5 0 7 4 4 10-9 14 85 71 107 64 10-3 18-1 18 5 0 26 58 10 96-26 22-21 57-46 77-55l37-18v110 110h-35c-43 0-38-1-77 11-18 6-45 12-60 14s-59 15-98 29c-50 17-72 21-75 13zm1115-134c0-12 168-137 215-160 55-28 135-41 310-53 83-5 247-20 365-34 276-32 408-42 395-29-9 10-80 25-170 38-23 3-52 8-65 10-14 3-59 10-100 16s-106 17-145 25c-38 8-86 17-105 20-48 7-62 12-56 22 3 5 21 8 41 7 19-1 38 2 41 6 3 5 2 9-3 9-4 0-35 5-68 11s-96 12-140 14l-85 6c-3 1-13 0-24-1-12-1-16 2-11 10s3 11-6 8c-8-3-31 1-51 8-26 9-38 10-38 2 0-7-5-6-15 2-8 7-26 10-40 8-14-3-28-1-31 3-3 5-14 9-25 9-10 0-19 4-19 9 0 6-9 8-20 6s-22 0-25 5c-3 4-13 7-23 6-9-2-20 1-23 6-8 12-79 22-79 11z"/><path d="M2449 4281c-40-8-94-43-109-71-15-29-12-80 5-86 9-4 39 4 68 16 72 32 172 32 245 0 28-12 52-27 52-32s10-8 23-6c18 2 23 10 25 45 3 34-2 45-25 67-49 46-125 76-190 75-32-1-74-4-94-8zm7-176c-45-16-56-29-56-68 0-65 48-89 91-46 26 26 80 21 114-11 14-13 33-20 47-18 18 2 24 10 26 37 6 59-5 81-51 101-49 23-116 25-171 5zm5074-7c-48-33-56-50-44-95 11-47 33-53 77-19 42 32 76 33 126 4 33-19 41-20 55-9 16 14 22 77 8 97-34 50-162 62-222 22zm-2251-408c-10-6-51-11-92-13-49-3-85-10-101-21l-26-16v-250-250h56c55 0 128 15 150 32 30 22 87 485 63 514-13 16-27 17-50 4z"/></g><path d="M4347 5548c-11-37-8-673 2-662 5 5 11 93 13 196s7 190 10 193c3 4 22 2 42-3l36-10v143 143l-27 5c-16 3-38 8-49 12-17 5-23 2-27-17z" fill="#6ba8b6"/><path d="M4290 4346c-30-11-473-103-580-121-19-3-51-9-70-14-30-8-32-9-10-11 14-1 34-1 45 0 19 2 19 1 2-18-19-21-88-38-202-48-38-4-74-10-80-13-5-4-22-6-37-5-15 2-32-4-39-12-10-12-4-14 33-14 25 0 92 7 150 15 57 8 167 19 244 25 140 11 326 40 376 59 41 15 208 142 208 158 0 7-1 13-2 12-2 0-19-6-38-13zm1510-254v-39l-44 7c-25 4-51 12-59 18-12 10-15 0-21-70-13-147-39-249-96-374-36-79-36-84-9-84 31 0 140 114 184 195 22 38 45 97 52 130 15 72 17 255 3 255-5 0-10-17-10-38zm-740-69c-2-89-2-288-1-348 1-53 4-66 12-52 11 20 69 52 69 39 0-5 12-7 28-5 15 2 44 6 65 8 21 3 46 9 56 15 12 6 22 5 29-2s14-9 17-7c9 10 10 264 0 279-5 8-8 23-6 33 2 16-4 18-36 16-36-2-71 8-121 33-19 10-25 8-37-8-14-19-14-19-30 4-22 31-45 28-45-5z" fill="#637880"/><path d="M3151 4474c-114-24-211-56-211-70 0-15 69-49 134-65 38-9 66-9 132 1 82 12 103 23 65 33-14 3-20 16-22 51-3 26 0 51 5 56 14 14-25 11-103-6z" fill="#456672"/><path d="M4340 5994c0-314 3-473 10-469 5 3 10 13 10 21 0 9 5 12 11 8s26-10 44-14l32-7 7 110c4 61 3 250 0 420l-7 309-39 49c-71 90-68 106-68-427zm417-888c-31-19-69-44-83-55-33-26-105-29-129-5-18 18-45 12-45-10 0-8 4-26 10-41 7-19 6-34-5-55-8-16-15-38-15-48 0-22 110-122 134-122 12 0 16-10 16-40 0-33 3-40 20-40 15 0 20 7 20 29 0 35 35 81 61 81 10 0 19 7 19 15 0 17-41 30-70 22-13-3-20 0-20 8 0 14 3 16 86 36 38 9 54 19 67 41 24 41 22 97-4 124l-21 22 26 17c30 20 35 55 8 55-10 0-44-15-75-34zm909-1693c4-27 9-51 13-55 6-7 163-80 576-268l360-170 110-56 6-56c6-53 38-118 59-118 5 0 14 9 20 20 13 23 40 27 40 5 0-16 35-21 44-6 11 18 73 21 109 6 49-20 57-19 57 8 0 26 17 47 38 47 37 0 70 81 57 139-5 25-12 31-33 31-14 0-33 7-43 16-21 19-49 12-49-11 0-9 10-20 23-26 18-7 15-8-15-4-25 4-38 2-38-6s-25-10-82-7c-69 4-96 10-158 40l-280 131c-331 153-435 203-622 298-98 49-182 89-188 89s-7-19-4-47z" fill="#49585e"/><path d="M5518 5389c-2-6-26-12-55-14-72-5-116-27-183-91-51-49-62-55-88-49-36 7-47-6-57-65-4-25-12-48-18-52-7-4-4-9 8-13 55-17 113-54 140-91 28-39 33-42 73-40 39 2 42 1 42-24 0-38 18-50 77-50h53v63l-1 62-50 34c-44 30-50 38-44 60 6 23 16 77 31 170 5 33 5 33 52 28a751.9 751.9 0 0 0 70-12c20-7 22-4 22 32 0 21-5 44-12 51-15 15-55 16-60 1zm-108-894c-37-44-200-95-305-95h-45v-178c0-169 1-178 21-190 11-7 18-19 15-27-7-18 10-30 18-13 5 10 7 10 12 1 3-7 10-13 15-13 6 0 8 4 5 9-4 5-3 17 0 26 6 15 8 14 25-1 11-9 19-14 19-9 0 4 7 2 15-5s15-9 15-5 7 2 15-5 21-10 29-7 17 1 20-6c3-9 5-9 5 1 1 6 9 12 19 12 14 0 15-2 2-10-12-7-11-12 5-30 15-17 17-23 6-29-11-7-9-11 5-20 11-6 14-11 8-11-9 0-12-42-4-60 3-6 3 8-4-150-10-194-33-389-55-467-12-41-3-42 34-3 15 16 33 28 38 27 6-1 18 27 27 63 17 68 22 83 47 139 16 36 25 90 43 249 5 51 12 98 16 103 3 5 0 51-6 102-6 50-14 209-18 351-7 261-12 288-42 251zm2086-156c-61-14-129-56-156-96-19-28-26-52-28-107-4-69-3-72 31-111 19-22 37-50 41-63 18-56 105-122 161-122 14 0 28-7 31-15 6-15 84-22 84-7 0 4 20 15 45 26 55 22 111 85 126 140 6 23 21 51 34 64 26 24 48 89 43 125-2 18-9 22-36 19-26-2-43 6-76 33-24 19-57 40-75 46-19 7-31 18-31 28 0 34-33 51-96 50-32-1-77-5-98-10zm214-246c33-22 40-33 40-64 0-41-21-52-55-29-43 28-100 26-142-6-38-29-49-26-58 17-8 34 4 52 50 81 39 24 131 24 165 1zm-3395-707c-229-116-882-428-965-461-30-12-79-28-107-35-29-6-53-16-53-20s9-6 19-3c11 3 43-2 73-11 44-12 55-21 65-46 13-34 2-40-31-15-27 20-36 19-36-5 0-22-6-24-67-20-68 3-102-8-109-36-9-35 0-39 47-25 51 15 62 7 20-16-17-10-31-23-31-29s-11-16-25-22c-39-18-30-44 30-87 20-15 19-16-13-43-31-26-33-30-21-55 15-32 20-33 37-7 19 30 86 28 107-4 8-13 13-30 9-39-5-14-2-14 24-5 30 12 39 10 148-23 17-5 48-9 70-10 21 0 48-4 59-8s28-6 39-3-10 13-58 27c-102 29-255 87-253 95 1 4-13 20-32 35l-33 29 35 17c37 20 87 73 87 93 0 7 9 21 21 32 32 29 48 66 53 124 3 29 6 54 8 55 8 8 173 87 463 220l486 224c145 68 168 76 177 62s11-12 11 8c1 20-45 115-52 109-1 0-92-47-202-102z" fill="#36464e"/><g fill="#25333a"><path d="M5727 5821c-43-40-60-79-73-162-4-24-11-49-15-55-16-20-29-237-16-253 7-8 14-41 17-75 5-60 5-61 38-64l32-3v63c0 35 3 93 6 129l7 65 31-4c17-3 37-9 44-14 9-8 12 6 12 66 0 42 4 76 9 76s17 30 26 68c10 37 22 71 27 77 4 5 8 21 8 36 0 31-59 89-91 89-11 0-38-18-62-39zm-898-836c-5-55-27-81-82-94l-69-18c-11-2-18-14-18-29 0-23 3-25 30-19 16 3 37 2 47-4 16-9 16-10-4-11-28 0-63-45-63-81 0-16-4-29-10-29-5 0-10 18-10 40 0 31-4 40-17 40-9 0-25 7-35 17-17 15-18 15-18-3 0-10 7-32 15-47 17-33 22-90 11-128-6-22-4-26 16-25 18 1 23-4 22-21 0-13 5-23 13-23 7 0 13 4 13 10 0 21 45 60 68 60 16 0 41 16 70 45 24 25 52 45 61 45 38 1 43 16 17 54-30 44-42 127-27 181 8 30 8 41-2 47-18 12-27 10-28-7zm479 1c-15-11-16-18-7-45 24-70-15-182-83-235l-32-25 22-24c12-13 22-28 22-33 0-8 67-104 89-127 5-4 26-1 47 7s50 14 64 13c19-2 26 3 28 21 2 13 10 22 22 22 10 0 20 9 23 20s11 20 19 20c16 0 48 54 48 82 0 11-13 33-30 50-31 31-39 58-17 58 21 0 60 47 54 64-3 8-16 16-29 18-12 2-27 12-33 23-8 16-18 19-53 17-52-4-72 10-72 50 0 25-3 29-20 25-11-3-23-1-26 4-7 12-16 11-36-5zm-3180-51c3-20-4-34-37-65-23-22-48-40-55-40-26 0-141-215-166-310-20-74-21-82-27-172-5-77-4-88 10-88 9 0 24 11 33 25 22 33 48 39 84 19 16-10 32-15 35-12 4 3 9 26 11 50 16 139 67 271 192 492 34 60 62 112 62 117s-33 9-74 9c-73 0-73 0-68-25zm373 16c-18-5-32-25-58-85-18-43-31-81-28-86 10-17 68-20 99-5 27 14 32 14 41 1 13-17 99-20 128-4 18 9 19 20 2 61-6 15 0 17 59 17 69 0 81-6 118-59l16-23 94 30 208 61 338 96c8 8-989 4-1017-4zm4140 5c4-4 315-97 494-147 130-37 137-36 166 6l24 35h80 80l30 45 30 45h68c43 0 66 4 62 10s-189 10-522 10c-284 0-514-2-512-4zm1285-83c106-194 171-331 183-386l13-58 56 6c95 10 112 15 112 33 0 36-24 101-72 197-67 134-87 165-106 166-9 0-39 13-67 28-45 24-50 31-53 64l-3 37h-56-55l48-87zM3439 3710l292-140c28 0-9-20-84-45-77-25-86-31-101-65-9-20-16-41-16-47 0-10 108-33 160-33 21 0 105 37 250 112l218 111-29 29c-19 19-29 40-29 59 0 16-3 29-7 29-5 0-53-25-107-55l-103-55c-1 0-3 54-3 120v120h-362-361l282-140zm2831 15c0-121-1-125-19-115-17 9-21 4-36-45-10-30-15-60-12-67 2-7 72-44 153-82 82-38 157-77 168-85 10-9 32-40 48-69 17-29 33-50 36-47s12-1 21-8c21-18 119-49 131-42 6 4-2 25-18 48-32 48-110 183-139 240-17 34-27 41-93 63-77 26-128 54-99 54 9 0 108 46 220 101l284 136c44 19 81 36 84 39 2 2-161 4-362 4h-367v-125z"/><path d="M4671 3326c-23-33-39-46-61-48l-30-3 28-54c36-71 138-180 200-214 101-55 153-67 285-64 119 2 124 3 202 40 95 46 130 74 114 94-6 7-21 13-33 13-27 0-46 18-39 35 2 8-2 25-9 39l-13 26-49-35c-95-67-238-73-352-15-77 40-115 82-149 166-31 77-52 81-94 20zm2414-321l-40-34 24-25c15-16 31-23 46-20 42 8 45-71 5-123-10-12-20-20-23-17s-17-2-31-13c-18-13-23-24-19-41l5-23-38 16c-40 17-118 14-129-6-10-15-28-10-21 6 3 8 1 15-3 15-5 0-16 3-24 6-10 3-22-4-31-19-13-19-14-30-5-58 13-38 63-96 91-105 10-3 18-13 18-23 0-29-51-66-135-97l-80-29 70-3c60-2 100-13 150-40 6-3 2 4-7 15-25 28-22 45 13 70 33 22 46 20 90-15 13-10 20-9 42 8 15 12 40 20 64 20 21 0 45 5 53 10 10 7-7 10-57 10-68 0-73 2-98 32l-27 31 39 19c43 20 83 61 83 85 0 8 11 28 25 44 49 59 59 169 23 266-12 32-24 61-27 65-3 3-24-9-46-27z"/></g><path d="M4887 8436l-347-181-597-301c-3 2 1 15 8 28 25 44 127 273 123 277-1 2-18-6-37-18s-61-30-93-40l-59-18-43-114-66-172-22-58-130-61c-339-158-309-141-354-205-23-32-98-145-167-250-69-106-131-193-137-193-18 0-266-98-293-115-13-9-33-37-45-63-11-26-29-64-39-85l-19-38 23 7c12 3 83 29 157 56l230 83c177 62 186 67 218 130 28 56 30 57 123 97l244 98c83 32 202 81 265 108l537 228c2-2-28-50-66-107s-99-153-136-214l-66-110-67-28-262-102-350-133-651-263c-10-5-61-82-115-171-113-188-351-569-548-876-161-251-168-265-168-307 0-56 11-74 50-85 24-6 334-10 878-10 736 0 846 2 886 16 53 18 129 90 170 161l28 48v641 641l26 49c27 50 66 108 234 344l255 365c87 127 211 300 275 385l154 208c68 94 143 131 225 110 62-16 101-57 231-240l153-211c16-22 94-132 173-245l206-292c91-125 261-378 289-430l24-45v-636-636l51-84c39-64 63-91 99-114l48-30 885-3c988-3 924-7 937 67 9 53-14 101-143 301l-234 363c-250 390-466 714-479 720-8 3-68 29-134 57-99 43-904 358-1108 433l-58 22-149 223-144 222c2 0 60-25 127-56s160-71 207-88c47-18 206-84 354-146l370-150 101-38 22-54 21-53 89-33c48-18 138-50 198-71l214-80c92-36 102-38 85-18-11 12-25 33-30 47a1309.2 1309.2 0 0 1-35 74l-24 49-150 59c-118 46-154 65-167 86-281 450-286 457-410 506-51 21-151 68-222 104l-130 67-66 170-67 170-44 6c-24 3-63 13-86 21-49 18-52 35 26-145l51-122c0-9-577 301-800 428-296 170-305 171-513 63zm1903-1664l207-76c49-16 54-22 124-129l527-842 133-211 28-41-67-7c-37-3-115-6-173-6h-107l-52 93-170 287-190 324c-41 72-76 124-78 116-3-8 1-111 7-230 19-330 28-574 21-583-7-8-331 3-326 12 2 3 0 96-4 206-5 110-11 295-14 410l-17 375-11 165-89 126c-49 69-89 129-89 132 0 6 79-22 340-121zm-3260 51c0-5-47-78-104-163l-104-155 26-6c15-4 64-7 110-8l83-1-70-103c-101-149-94-144-236-150-98-4-121-8-130-21-5-10-43-67-82-127l-73-114c0-3 122-6 271-7l271-3-76-105c-42-57-76-108-76-112s90-8 201-8h200l-16-28c-9-15-51-77-93-137l-77-110-612-1c-457-1-611 1-606 10 4 6 45 70 91 141l146 225 561 848c3 4 378 141 388 141 4 1 7-2 7-6zm1516 985l-168-223-258-345c-64-85-187-253-273-373l-157-218v-869l-9-874c-13-9-166-53-311-91l-180-48-475-132-239-66c-162-46-138-58-222 109-45 88-61 111-73 106-33-14-109-12-115 2-7 18-26 18-61 0-19-10-36-12-58-5-17 5-34 5-38 1-3-4-30-58-59-121-29-62-64-125-76-138-31-34-39-76-39-208 1-145 16-220 54-259 16-17 34-49 40-72 14-52 69-115 120-139 37-16 56-45 31-45-6 0-22-11-36-25l-25-25-87 45c-48 24-111 66-141 92-104 91-170 228-174 364-1 38-5 69-9 69-5 0-8-4-8-10 0-5-16 0-35 11-31 19-36 19-56 6-11-8-28-25-37-38-15-21-16-22-24-3-15 38-4-102 14-175 31-121 77-198 190-317 82-86 155-144 238-188 42-23 66-43 78-67 33-66 124-105 226-96 73 7 110 31 114 76 2 18 6 31 10 29 81-37 247-95 336-117 112-29 321-58 347-49 8 3-26 17-76 33-136 41-220 77-442 187-170 85-206 107-223 135-11 18-31 38-45 45-33 15-35 58-3 58 61 0 168 90 168 141 0 10 10 26 23 36 59 47 75 131 39 203-57 113-320 173-466 107-33-15-61-25-64-23-2 3-2 16 2 29 10 41 93 71 200 73 105 2 181-20 310-90 221-121 280-124 796-46l245 35c28 4 66 10 85 15 31 7 80 15 163 26l217 30c24 5 23 4-8-26-52-47-180-140-210-151-45-17-242-50-325-54-43-2-160-13-260-24l-302-32c-66-6-149-18-184-25-68-15-158-51-149-59 5-5 254 12 295 19 10 2 59 7 108 10 115 9 344 32 510 52 72 9 155 17 186 17 100 1 162-56 175-161 9-70-6-129-46-189-17-24-30-57-30-72 0-27 39-81 58-81 5 0 35 12 67 26 64 30 78 25 73-26-3-29-11-37-73-72-125-72-657-328-652-314 20 51 82 128 120 148 23 12 35 23 27 24-96 14-166 28-170 35-3 5-23-22-44-59-78-135-160-262-175-267-17-7-42 19-60 61-15 37-34 43-114 36l-54-4-56-127c-31-70-59-146-63-168-9-60 13-148 46-187 16-17 32-44 35-59 7-27 45-59 45-37 0 6 11 16 25 22s25 16 25 22 14 19 30 28c42 24 41 52-2 45-18-3-41-8-51-12-19-8-22 2-7 25 7 11 29 15 77 16 95 2 93 1 93 28 0 22-6 26-46 32-44 6-140-5-177-21-23-10-22 10 3 35 11 11 17 20 13 20-5 0-1 5 7 11 11 8 7 9-17 5-40-7-44 11-10 41 27 25 49 30 167 42 89 10 100 14 383 147l854 390 32 14 30-54c17-29 31-64 31-76 0-47 22-98 44-102 33-7 44 0 77 48 16 24 37 44 46 44 12 0 14 7 9 33-10 49-34 371-41 557-6 146-3 188 20 365l29 203c2 1 23-5 47-13 124-45 314-57 453-31 43 9 81 18 83 20 3 3-10 25-29 51-18 26-41 60-50 78-10 17-26 39-36 49-17 17-21 17-55 3-69-29-160-16-224 32-44 32-79 24-136-33-33-33-52-45-66-41-13 3-28-5-45-24-14-16-26-31-26-34 0-2-14-19-32-37-73-74-148-295-155-458-6-127 10-225 67-402 21-67 38-124 36-125-2-2-32 27-66 64-100 107-170 274-170 408 0 63 35 186 78 278 35 75 162 275 182 287 31 19 33 114 3 169-7 14-13 31-13 36 0 6-21 29-47 51l-47 41 18 41c15 33 16 46 7 72-11 34-5 62 10 39 4-7 32-16 61-19 50-5 56-3 113 36 74 51 125 78 133 69 4-4-5-16-21-27-32-23-34-39-7-63 11-10 20-24 20-32 0-33 32-24 70 20 53 60 110 87 183 87 31 0 57 1 58 3 0 1 3 22 5 47 7 57 16 68 54 62 26-4 39 4 90 52 68 65 113 87 183 90 30 1 52 6 55 14 11 34 55-2 50-42-3-24-5-25-28-13-14 6-44 11-67 9-40-3-43-5-48-40-12-72-32-167-39-184-6-12 6-25 48-55l56-38-2-62c-1-65 11-93 42-93 9 0 20-3 23-7 9-9-33-53-50-53-18 0-17-56 1-63 8-3 22-18 32-32 16-24 16-28-1-58l-17-32 38-40c78-82 200-304 228-412 19-71 19-197 2-282-16-79-79-185-152-259-34-34-67-62-73-62-5 0 5 33 23 73 92 205 117 437 66 617-27 94-90 229-130 281-35 44-80 55-80 19 0-10-8-23-17-29-14-7-15-12-5-24 9-11 13-60 12-169 0-84 5-227 11-318 14-202 14-194 0-310-22-181-28-217-46-256-30-67-33-77-50-149-9-38-24-78-33-88-13-14-14-24-5-46 6-16 7-35 2-42-9-15 17-38 44-39 9 0 27-6 38-13 19-11 25-7 65 38 49 56 119 190 130 247 7 42 9 43 44 23 42-24 47-19 40 30-5 30-3 45 4 45 6 0-2 11-19 25-43 35-15 31 79-11l818-385c261-125 275-130 381-138l88-6 51 47 51 47-35 78-35 78-72 5-72 5-31-50-34-54c-7-8-54 30-70 59-10 16-23 29-29 28-20-3-105 25-116 38-18 22-41 18-34-7 6-18 4-19-12-11-10 5-40 19-66 31-347 157-434 200-564 280l-92 56-1 42v42l166-81c91-44 167-78 168-76 6 8 38 119 35 122-2 1-40 22-84 45-44 24-94 53-110 65-72 55-88 229-28 304 65 81 109 86 438 47l545-55 254-25c25-5 28-4 17 9-21 25-130 54-226 61-78 5-348 34-470 50-22 3-107 10-190 15l-170 14-65 11c-25 4-63 16-85 27-33 17-212 146-250 180-9 9 77 4 130-7a1272.1 1272.1 0 0 1 70-10c28-4 61-8 75-11 23-4 99-15 190-28 19-3 100-15 180-26l175-25c76-10 110-16 129-20 60-14 232-22 302-15 70 8 96 17 229 84 164 83 237 106 330 106 107 0 215-45 215-90 0-19-1-19-47 1-56 24-143 37-143 22 0-6 7-16 15-23 9-7 14-19 11-27-4-9 9-20 37-32 24-10 60-35 81-54 21-20 43-34 50-31s26 6 42 7c35 3 41 23 43 143 1 93-16 160-53 209-28 36-165 317-186 379l-12 36-86-1c-48 0-81-3-75-6 9-3 5-15-13-38-14-18-27-45-30-60-7-37-86-204-125-266-22-33-38-49-49-46-101 30-315 90-390 110l-240 65-475 122c-71 17-151 38-176 46l-46 15-6 631-7 879v248l-127 173-241 328-188 255c-69 99-316 431-324 433-4 2-20-12-34-30zm-28-954l2-331 133-6c203-8 327-59 425-173 110-128 149-320 101-497-32-120-127-243-234-302-116-64-149-69-460-69l-280-1v845l4 858c2 10 39 12 155 10l151-3 3-331zm-605-462l25-37 4-335 1-816-3-481-36-48c-27-35-39-44-45-34-5 8-9 421-9 918 0 891 0 904 19 887 11-10 31-34 44-54zm1422-573c34-30 43-56 27-74-5-6-17-40-27-77-9-38-21-68-26-68s-10-218-11-492l-3-493-42 57-43 57v245 245l-27 3c-27 3-28 6-33 64-3 34-11 68-18 76-7 9-10 22-8 29 3 8 7 54 10 103 3 48 9 93 14 100 5 6 12 31 16 55 13 83 30 122 73 162 24 21 47 39 52 39 6 0 26-14 46-31zM4160 4640c0-49 1-93 3-97 6-18-251-70-828-169l-108-19c-103-19-195-5-257 38-18 13-14 16 52 36 40 12 111 29 158 37 47 9 114 24 150 34l95 25 45 10c44 11 254 68 313 86l86 24c45 10 264 75 269 79 17 17 22-3 22-84zm1930 54c47-14 141-40 210-59l220-58c52-15 106-28 120-31 24-4 386-96 461-116 31-9 36-13 32-34-8-39-49-50-166-43-56 3-136 12-177 21l-215 41-235 45c-52 11-108 22-125 24-16 2-50 7-75 11-25 3-69 13-97 21l-53 15v94c0 52 3 95 8 95 4 0 45-12 92-26zm-3443-440c67-33 103-68 103-104 0-31-18-50-29-32-4 6-29 21-56 33-69 31-190 32-259 1-52-24-66-22-66 9 0 46 54 97 113 106 18 3 34 7 37 9 12 13 114-2 157-22zm-37-160c46-18 60-38 60-84 0-40-24-49-55-20-35 33-106 39-134 11-26-26-47-27-61-2-24 45-9 77 46 96 52 19 95 18 144-1zm-23-385c30-16 49-64 37-97-14-40-72-75-113-68-43 7-78 41-87 82-5 25-1 36 25 62 42 41 87 48 138 21zm2441 2505c-5-4-8-101-8-215v-208l88-3c48-2 103 1 123 5 48 11 104 59 130 109 53 103 21 225-75 283-44 27-59 30-150 33-56 2-104 1-108-4zm-59-1211c-59-50-74-124-40-192 63-123 256-108 306 23 24 63 14 110-35 158-48 48-69 50-41 4 23-37 28-86 8-86-7 0-23 7-35 16-30 20-70 21-109 0-18-9-37-16-43-16-21 0-9 51 21 85 38 43 17 49-32 8zm3311-531c0-11-17-15-111-27l-46-6 9-62c5-34 7-95 4-135-16-202-103-324-318-445-68-39-84-44-91-32-4 8-22 22-38 31-19 9-29 21-25 29 3 8 1 17-4 20-6 4-10-1-10-9 0-12-10-16-35-16-19 0-35-4-35-10 0-5-18-22-40-36-22-15-43-36-46-48-13-47-636-324-734-326-20-1-22-3-10-10 9-5 59-5 122 1 176 15 325 52 481 119 85 37 87 37 87 16 0-26 33-60 73-75 43-17 112-13 174 9 63 22 96 48 113 90 7 16 24 33 38 38 15 6 59 33 99 61 192 136 330 319 364 482 24 112 17 314-12 344-6 5-9 5-9-3zm-579-771c77-77-13-188-118-146-93 39-57 175 47 175 33 0 48-6 71-29z" fill="#16222a"/></svg>