<svg xmlns="http://www.w3.org/2000/svg" width="750" height="750" xmlns:v="https://vecta.io/nano"><style><![CDATA[@media(prefers-color-scheme: light){:root{filter:none}} @media(prefers-color-scheme: dark){:root{filter:invert(100%)}}]]></style><svg width="750" height="750" viewBox="0 0 7500 7500" cursor="move"><path d="M3095 6374c-371-16-385-19-385-73 0-16 7-34 15-41s81-18 172-26c532-45 1085-46 1703-2 157 11 177 14 197 34 26 26 21 59-11 79-56 35-1128 53-1691 29zm-1212-486c-17-18-29-63-53-197-17-95-35-183-39-195-11-27-34-46-101-81-77-40-136-81-144-100-3-9-6-60-6-112v-95l39 39c104 104 293 149 453 107 33-8 61-14 62-12s19 27 40 57c46 65 43 72-37 116-31 16-59 35-61 42-3 6-7 78-11 160-9 217-13 251-38 273-28 27-78 26-104-2zm3660 12c-36-15-43-43-44-167-1-65-4-156-7-203l-7-85-60-32c-84-44-86-50-40-114 21-30 40-55 40-57 1-1 28 4 61 13 157 41 347-8 462-118l32-31v97c0 92-1 98-29 129-16 18-64 52-108 75s-86 50-95 60c-13 15-39 121-89 360-6 28-16 56-22 61-19 15-70 22-94 12zm-2646-175c-121-23-303-98-407-168-125-84-161-126-413-494-62-91-74-113-59-113 11 0 39-7 63-15l44-16 100 47c451 212 549 266 711 387 115 86 238 210 259 261 42 100-91 150-298 111zm1488 0c-121-43-72-151 155-339 160-133 288-207 641-369 211-96 228-103 255-91 16 6 39 16 52 20 21 9 20 12-44 104-36 52-97 146-135 207-39 62-92 137-119 166-181 199-627 365-805 302zm-2590-569c-99-32-196-104-234-174-24-45-33-120-21-177l11-55h40c33 0 39 3 39 22 0 87 136 208 234 208 31 0 38 6 95 89 58 85 60 89 38 95-38 10-160 5-202-8zm3723 8c-10-3-18-8-18-10 0-3 25-43 55-88l55-84 53-6c106-14 205-99 223-193 6-30 9-33 44-33s38 2 44 38c21 128-10 215-102 287-77 61-149 86-252 91-47 1-93 1-102-2zm-1822-125c-21-17-26-29-26-65v-44h-97c-82 0-106-4-148-24-107-49-155-141-155-293v-83l-42-2c-199-7-379 32-559 122-110 55-236 158-298 242l-27 36-54-33-53-33 2-80c1-45-2-90-8-100-9-17-3-22 57-47 279-115 661-406 809-616 62-88 109-188 134-288 30-120 24-303-13-409-43-119-105-216-207-324-112-118-229-208-360-276-210-110-341-143-606-151-168-6-196-9-240-29-61-28-82-47-106-94l-19-38 26-40c15-22 27-40 28-40l64 20c77 24 203 26 285 5 86-22 149-58 222-126 55-52 66-58 71-43 39 115 111 204 223 278 176 115 363 179 623 210l46 5 4-167c3-162 4-169 31-214 15-26 54-68 87-93 33-26 98-78 143-117 102-87 144-108 222-108 74 0 103 16 288 160 196 153 206 172 207 388v142h49c117 0 354-66 500-140 88-44 184-112 248-176 45-46 93-132 93-171 0-17 11-10 63 42 71 71 138 108 234 131 93 22 230 15 297-15 27-12 52-18 55-13s16 25 29 45l24 37-24 42c-48 88-131 118-322 118-364 0-667 120-926 367-113 107-171 184-226 298-79 163-100 352-56 509 81 285 290 510 708 763 71 44 168 94 214 113l88 35c1 1-5 19-14 41-12 29-15 55-10 105l7 66-56 36c-30 21-55 34-55 29 0-19-116-147-170-186-195-144-512-242-706-220l-54 7v101c0 90-3 108-26 154-51 102-124 141-266 142h-98v36c0 77-93 121-154 73zm-38-286c-2-22-24-42-103-99-55-39-103-69-107-67-5 2-8 34-8 69 0 59 3 68 29 95 28 27 34 29 111 29h81l-3-27zm373 17c31-17 49-64 49-130 0-33-3-60-6-60-11 0-137 93-181 133-63 58-58 67 38 67 44 0 89-5 100-10zm-366-1452l-8-1095c-1-1-50 38-110 85l-107 87v345 345l28 40 27 40 5 545c5 597 3 572 67 631 24 24 92 69 101 69 2 0 1-492-3-1092zm253 1050c23-16 55-48 70-70l27-42 3-543 3-544 29-46 30-47v-331-331l-37-36c-54-50-175-148-185-148-4 0-8 491-8 1091l13 1083 55-36zm-2082 488c-75-28-128-100-119-161l5-31-84-2c-127-3-354-31-443-54-177-45-368-162-476-290-70-82-79-99-79-146 0-35 6-49 31-74 30-31 30-31 117-25 236 16 507 164 856 470l78 68 27-24c47-44 91-60 166-61 111 0 182 47 206 137 19 70-11 128-87 173-54 32-142 41-198 20zm3707 4c-89-21-143-83-143-165 0-64 28-110 87-143 77-42 214-27 275 30 27 25 33 27 47 15 9-8 63-54 121-103 214-182 333-263 495-336 125-56 203-79 291-85 96-7 138 9 160 62 28 67-27 154-172 274s-302 190-494 220c-51 8-372 41-401 41-4 0-9 24-11 52-5 46-11 57-47 89-57 51-129 68-208 49zM703 2766c-66-30-71-91-13-165 49-62 192-188 285-251 104-70 242-144 384-207l239-105 113-49 43 20c23 12 48 21 55 21 33 0-246 408-333 486-74 68-184 134-289 174-178 69-417 107-484 76zm5947 8c-117-20-156-28-230-51-179-53-338-152-437-272-30-36-102-137-160-223-58-87-112-163-119-169-17-14-9-29 14-29 10 0 34-9 55-20l37-20 48 24c26 13 106 49 177 79 281 118 432 202 590 325 109 84 231 209 240 244 19 74-22 111-123 114-37 1-78 0-92-2zm-4807-515l-33-10 27-42c76-122 78-124 137-130 58-6 137-36 170-65 30-27 76-104 76-128 0-16 7-23 27-27 55-10 77 26 75 124-2 121-94 224-240 269-68 21-182 25-239 9zm3580-10c-160-50-255-193-224-334l12-55h45c38 0 44 3 44 20 0 35 37 96 81 133 46 40 114 67 169 67 34 0 41 6 93 76 32 42 57 80 57 84 0 15-72 30-145 29-40 0-96-8-132-20zm-3583-305c-124-54-153-184-60-268 22-20 43-36 48-36 4-1 27-5 52-10 79-15 142 5 235 74 8 6 58-30 156-114 305-259 616-425 821-438l77-5 36 36c61 61 40 127-83 258-189 201-383 281-766 318-60 6-135 11-166 11h-57l-6 46c-6 58-31 93-87 122-53 26-146 29-200 6zm3636-7c-53-30-77-65-83-121l-6-46h-57c-78 0-339-28-420-45-236-50-434-170-576-351-75-95-81-153-21-198 64-47 251-14 432 76 180 90 268 152 618 437 20 16 34 21 42 15 7-5 28-21 47-36 58-46 155-54 239-20 63 25 120 120 105 176-21 81-108 136-215 136-50 0-76-6-105-23z" fill="#00050b"/></svg></svg>